<svg height="512pt" viewBox="0 0 512 512" width="512pt" xmlns="http://www.w3.org/2000/svg" xmlns:xlink="http://www.w3.org/1999/xlink"><linearGradient id="a" gradientUnits="userSpaceOnUse" x1="256" x2="256" y1="0" y2="512"><stop offset="0" stop-color="#2af598"/><stop offset="1" stop-color="#009efd"/></linearGradient><path d="m437.019531 74.980469c-48.351562-48.351563-112.640625-74.980469-181.019531-74.980469s-132.667969 26.628906-181.019531 74.980469c-48.351563 48.351562-74.980469 112.640625-74.980469 181.019531s26.628906 132.667969 74.980469 181.019531c48.351562 48.351563 112.640625 74.980469 181.019531 74.980469s132.667969-26.628906 181.019531-74.980469c48.351563-48.351562 74.980469-112.640625 74.980469-181.019531s-26.628906-132.667969-74.980469-181.019531zm-304.019531 201.019531c0-45.089844 46.195312-73 88.992188-73 42.597656 0 76.113281-4.359375 102.472656-13.328125 6.21875-2.117187 12.132812-4.53125 17.765625-7.238281-20.539063 29.542968-64.203125 57.980468-131.902344 86.09375l-4.492187 1.859375c-18.875 7.792969-43.648438 18.050781-66.15625 33.726562-3.792969-6.554687-6.679688-15.519531-6.679688-28.113281zm216.914062-42.480469c-4.253906 27.355469-10.753906 50.679688-19.570312 70.359375-22.050781 49.203125-58.226562 73.121094-110.59375 73.121094-32.695312 0-51.398438-24.242188-59.082031-38.746094 17.195312-12.207031 38.34375-21.773437 60.433593-30.894531l4.570313-1.890625c55.777344-23.164062 96.433594-46.710938 124.242187-71.949219zm-93.914062 238.480469c-51.5 0-98.84375-18.128906-136-48.324219v-11.675781c0-17.421875 4.308594-31.828125 11.769531-44.054688 3.472657 5.167969 7.519531 10.371094 12.175781 15.363282 14.351563 15.367187 39.148438 33.691406 75.804688 33.691406 36.191406 0 67.523438-9.3125 93.128906-27.679688 22.5-16.136718 40.652344-39.382812 53.964844-69.085937 19.621094-43.773437 29.15625-101.59375 29.15625-176.761719h-.019531c.003906-.492187.019531-.980468.019531-1.472656v-20h-39.121094l-.042968-.039062c-.011719.011718-.023438.027343-.035157.039062h-.800781v.921875c-18.378906 20.941406-47.824219 40.078125-134.007812 40.078125-32.101563 0-64.148438 10.960938-87.925782 30.074219-26.480468 21.289062-41.066406 50.738281-41.066406 82.925781 0 21.363281 5.546875 39.78125 16.511719 55.003906-13.640625 15.964844-22.578125 33.96875-26.757813 53.855469-26.84375-35.996094-42.753906-80.605469-42.753906-128.859375 0-119.101562 96.898438-216 216-216s216 96.898438 216 216-96.898438 216-216 216zm0 0" fill="url(#a)"/></svg>