<svg height="512pt" viewBox="0 0 512 512" width="512pt" xmlns="http://www.w3.org/2000/svg"><path d="m344.128906 256.128906c0 48.597656-39.402344 88-88 88-48.601562 0-88-39.402344-88-88 0-48.601562 39.398438-88 88-88 48.597656 0 88 39.398438 88 88zm0 0" fill="#ff5d5d"/><g fill="#fff"><path d="m315.46875 70c0-33.136719-26.625-60-59.46875-60s-59.46875 26.863281-59.46875 60 26.625 60 59.46875 60 59.46875-26.863281 59.46875-60zm0 0"/><path d="m130 256c0-33.433594-26.863281-60.535156-60-60.535156s-60 27.101562-60 60.535156 26.863281 60.535156 60 60.535156 60-27.101562 60-60.535156zm0 0"/><path d="m180 441.464844c0-33.433594-26.863281-60.535156-60-60.535156s-60 27.101562-60 60.535156 26.863281 60.535156 60 60.535156 60-27.101562 60-60.535156zm0 0"/><path d="m502 442c0-33.136719-26.625-60-59.46875-60s-59.46875 26.863281-59.46875 60 26.625 60 59.46875 60 59.46875-26.863281 59.46875-60zm0 0"/></g><path d="m279.316406 232.9375c3.90625 3.902344 10.238282 3.902344 14.144532 0 3.90625-3.90625 3.90625-10.238281 0-14.144531-20.585938-20.582031-54.082032-20.582031-74.667969 0-20.585938 20.585937-20.585938 54.082031 0 74.667969 10.292969 10.292968 23.8125 15.4375 37.335937 15.4375 13.519532 0 27.039063-5.144532 37.332032-15.4375 3.90625-3.90625 3.90625-10.234376 0-14.144532-3.90625-3.902344-10.234376-3.902344-14.144532 0-12.785156 12.789063-33.59375 12.789063-46.382812 0-12.785156-12.785156-12.785156-33.59375 0-46.382812 12.789062-12.785156 33.597656-12.785156 46.382812.003906zm0 0"/><path d="m266.128906 158.632812v-19.386718c33.519532-4.953125 59.339844-34.113282 59.339844-69.246094 0-38.597656-31.164062-70-69.46875-70s-69.46875 31.402344-69.46875 70c0 35.21875 25.949219 64.433594 59.597656 69.28125v19.351562c-46.078125 4.691407-82.816406 41.433594-87.496094 87.511719-.53125-.085937-1.074218-.144531-1.632812-.144531h-17.714844c-4.835937-34.171875-34.058594-60.535156-69.285156-60.535156-38.597656 0-70 31.640625-70 70.535156s31.402344 70.535156 70 70.535156c35.226562 0 64.449219-26.363281 69.285156-60.535156h17.714844c.550781 0 1.085938-.054688 1.609375-.140625 2.460937 24.84375 14.234375 46.988281 31.777344 62.882813l-37.195313 50.636718c-9.882812-5.386718-21.1875-8.449218-33.191406-8.449218-38.597656 0-70 31.640624-70 70.535156 0 38.890625 31.402344 70.535156 70 70.535156s70-31.644531 70-70.535156c0-19.578125-7.964844-37.316406-20.789062-50.105469l37.28125-50.761719c14.566406 8.589844 31.535156 13.53125 49.636718 13.53125 54.035156 0 98-43.964844 98-98 0-50.664062-38.644531-92.46875-88-97.496094zm-196.128906 147.902344c-27.570312 0-50-22.671875-50-50.535156s22.429688-50.535156 50-50.535156 50 22.671875 50 50.535156-22.429688 50.535156-50 50.535156zm100 134.929688c0 27.863281-22.429688 50.535156-50 50.535156s-50-22.671875-50-50.535156c0-27.867188 22.429688-50.535156 50-50.535156s50 22.667968 50 50.535156zm36.53125-371.464844c0-27.570312 22.191406-50 49.46875-50s49.46875 22.429688 49.46875 50-22.191406 50-49.46875 50-49.46875-22.429688-49.46875-50zm49.597656 264.128906c-43.011718 0-78-34.992187-78-78 0-43.011718 34.988282-78 78-78 43.007813 0 78 34.988282 78 78 0 43.007813-34.992187 78-78 78zm0 0"/><path d="m263 79.261719v10c0 5.519531 4.476562 10 10 10s10-4.480469 10-10v-40c0-5.523438-4.476562-10-10-10s-10 4.476562-10 10v10h-14v-10c0-5.523438-4.476562-10-10-10s-10 4.476562-10 10v40c0 5.519531 4.476562 10 10 10s10-4.480469 10-10v-10zm0 0"/><path d="m87 226c-5.523438 0-10 4.476562-10 10v10h-14v-10c0-5.523438-4.476562-10-10-10s-10 4.476562-10 10v40c0 5.523438 4.476562 10 10 10s10-4.476562 10-10v-10h14v10c0 5.523438 4.476562 10 10 10s10-4.476562 10-10v-40c0-5.523438-4.476562-10-10-10zm0 0"/><path d="m137 411.464844c-5.523438 0-10 4.476562-10 10v10h-14v-10c0-5.523438-4.476562-10-10-10s-10 4.476562-10 10v40c0 5.519531 4.476562 10 10 10s10-4.480469 10-10v-10h14v10c0 5.519531 4.476562 10 10 10s10-4.480469 10-10v-40c0-5.523438-4.476562-10-10-10zm0 0"/><path d="m459.53125 412c-5.523438 0-10 4.476562-10 10v10h-14v-10c0-5.523438-4.476562-10-10-10s-10 4.476562-10 10v40c0 5.523438 4.476562 10 10 10s10-4.476562 10-10v-10h14v10c0 5.523438 4.476562 10 10 10s10-4.476562 10-10v-40c0-5.523438-4.476562-10-10-10zm0 0"/><path d="m442.53125 372c-15.796875 0-30.371094 5.351562-42.054688 14.335938l-19.082031-19.085938c-3.90625-3.902344-10.238281-3.902344-14.144531 0-3.90625 3.90625-3.90625 10.238281 0 14.144531l19.265625 19.265625c-8.449219 11.59375-13.457031 25.886719-13.457031 41.339844 0 38.597656 31.164062 70 69.472656 70 38.304688 0 69.46875-31.402344 69.46875-70s-31.164062-70-69.46875-70zm0 120c-27.277344 0-49.46875-22.429688-49.46875-50s22.191406-50 49.46875-50 49.46875 22.429688 49.46875 50-22.191406 50-49.46875 50zm0 0"/><path d="m346.21875 336.210938c-2.640625 0-5.207031 1.070312-7.070312 2.929687-1.867188 1.871094-2.929688 4.4375-2.929688 7.070313 0 2.640624 1.0625 5.210937 2.929688 7.078124 1.863281 1.859376 4.433593 2.929688 7.070312 2.929688 2.632812 0 5.203125-1.070312 7.070312-2.929688 1.859376-1.867187 2.929688-4.4375 2.929688-7.078124 0-2.632813-1.070312-5.199219-2.929688-7.070313-1.867187-1.859375-4.4375-2.929687-7.070312-2.929687zm0 0"/></svg>